0
SECTION
2
HEADER
9
$ACADVER
1
AC1009
0
ENDSEC
0
SECTION
2
TABLES
0
TABLE
2
LTYPE
70
3
0
LTYPE
2
CONTINUOUS
70
0
3
Solid line
72
65
73
0
40
0.0
0
LTYPE
2
CENTER
70
0
3
Center ____ _ ____
72
65
73
2
40
10.0
49
5.0
49
-2.5
0
LTYPE
2
DASHED
70
0
3
Dashed __ __ __
72
65
73
2
40
6.0
49
3.0
49
-3.0
0
ENDTAB
0
TABLE
2
LAYER
70
6
0
LAYER
2
0
70
0
62
7
6
CONTINUOUS
0
LAYER
2
ROAD
70
0
62
3
6
CONTINUOUS
0
LAYER
2
CENTER
70
0
62
1
6
CENTER
0
LAYER
2
SIGNAL
70
0
62
1
6
CONTINUOUS
0
LAYER
2
SIGN
70
0
62
2
6
CONTINUOUS
0
LAYER
2
TEXT
70
0
62
7
6
CONTINUOUS
0
ENDTAB
0
ENDSEC
0
SECTION
2
ENTITIES
0
LINE
8
ROAD
10
-100.00
20
0.00
11
-100.00
21
60.00
0
LINE
8
ROAD
10
100.00
20
0.00
11
100.00
21
60.00
0
LINE
8
ROAD
10
-100.00
20
0.00
11
100.00
21
0.00
0
LINE
8
ROAD
10
-100.00
20
60.00
11
-149.90
21
135.00
0
LINE
8
ROAD
10
100.00
20
60.00
11
-109.90
21
135.00
0
LINE
8
ROAD
10
100.00
20
60.00
11
149.90
21
135.00
0
LINE
8
ROAD
10
-100.00
20
60.00
11
109.90
21
135.00
0
LINE
8
CENTER
10
0.00
20
0.00
11
0.00
21
60.00
0
LINE
8
CENTER
10
0.00
20
60.00
11
-129.90
21
135.00
0
LINE
8
CENTER
10
0.00
20
60.00
11
129.90
21
135.00
0
LINE
8
SIGNAL
10
150.00
20
100.00
11
190.00
21
100.00
0
LINE
8
SIGNAL
10
150.00
20
100.00
11
150.00
21
220.00
0
LINE
8
SIGNAL
10
190.00
20
100.00
11
190.00
21
220.00
0
LINE
8
SIGNAL
10
150.00
20
220.00
11
190.00
21
220.00
0
CIRCLE
8
SIGNAL
10
170.00
20
200.00
40
10.00
0
CIRCLE
8
SIGNAL
10
170.00
20
170.00
40
10.00
0
CIRCLE
8
SIGNAL
10
170.00
20
140.00
40
10.00
0
LINE
8
SIGN
10
200.00
20
150.00
11
300.00
21
150.00
0
LINE
8
SIGN
10
300.00
20
150.00
11
300.00
21
100.00
0
LINE
8
SIGN
10
300.00
20
100.00
11
200.00
21
100.00
0
LINE
8
SIGN
10
200.00
20
100.00
11
200.00
21
150.00
0
TEXT
8
TEXT
10
220.00
20
135.00
40
15.00
1
G318
50
0
0
TEXT
8
TEXT
10
0.00
20
200.00
40
20.00
1
Y-Intersection
50
0
0
ENDSEC
0
EOF
