0
SECTION
2
HEADER
9
$ACADVER
1
AC1009
0
ENDSEC
0
SECTION
2
TABLES
0
TABLE
2
LTYPE
70
2
0
LTYPE
2
CONTINUOUS
70
0
3
Solid line
72
65
73
0
40
0
0
0
LTYPE
2
CENTER
70
0
3
Center
72
65
73
2
40
50
49
25
49
-25
0
0
LTYPE
2
DASHED
70
0
3
Dashed
72
65
73
2
40
30
49
20
49
-10
0
0
ENDTAB
0
TABLE
2
LAYER
70
6
0
LAYER
2
0
70
0
62
7
6
CONTINUOUS
0
LAYER
2
HOUSING
70
0
62
1
6
CONTINUOUS
0
LAYER
2
LIGHT
70
0
62
2
6
CONTINUOUS
0
LAYER
2
LINE
70
0
62
7
6
CONTINUOUS
0
LAYER
2
TEXT
70
0
62
7
6
CONTINUOUS
0
LAYER
2
DIM
70
0
62
5
6
CONTINUOUS
0
ENDTAB
0
ENDSEC
0
SECTION
2
ENTITIES
0
LINE
8
HOUSING
10
-200.00
20
400.00
11
200.00
21
400.00
0
LINE
8
HOUSING
10
200.00
20
400.00
11
200.00
21
-400.00
0
LINE
8
HOUSING
10
200.00
20
-400.00
11
-200.00
21
-400.00
0
LINE
8
HOUSING
10
-200.00
20
-400.00
11
-200.00
21
400.00
0
CIRCLE
8
LIGHT
10
0.00
20
180.00
40
120.00
0
CIRCLE
8
LIGHT
10
0.00
20
0.00
40
120.00
0
CIRCLE
8
LIGHT
10
0.00
20
-180.00
40
120.00
0
LINE
8
LINE
10
-2000.00
20
-1425.00
11
2000.00
21
-1425.00
0
LINE
8
LINE
10
2000.00
20
-1425.00
11
2000.00
21
-975.00
0
LINE
8
LINE
10
2000.00
20
-975.00
11
-2000.00
21
-975.00
0
LINE
8
LINE
10
-2000.00
20
-975.00
11
-2000.00
21
-1425.00
0
LINE
8
LINE
10
-2000.00
20
-2025.00
11
2000.00
21
-2025.00
0
LINE
8
LINE
10
2000.00
20
-2025.00
11
2000.00
21
-1575.00
0
LINE
8
LINE
10
2000.00
20
-1575.00
11
-2000.00
21
-1575.00
0
LINE
8
LINE
10
-2000.00
20
-1575.00
11
-2000.00
21
-2025.00
0
LINE
8
LINE
10
-2000.00
20
-2625.00
11
2000.00
21
-2625.00
0
LINE
8
LINE
10
2000.00
20
-2625.00
11
2000.00
21
-2175.00
0
LINE
8
LINE
10
2000.00
20
-2175.00
11
-2000.00
21
-2175.00
0
LINE
8
LINE
10
-2000.00
20
-2175.00
11
-2000.00
21
-2625.00
0
LINE
8
LINE
10
-2000.00
20
-3225.00
11
2000.00
21
-3225.00
0
LINE
8
LINE
10
2000.00
20
-3225.00
11
2000.00
21
-2775.00
0
LINE
8
LINE
10
2000.00
20
-2775.00
11
-2000.00
21
-2775.00
0
LINE
8
LINE
10
-2000.00
20
-2775.00
11
-2000.00
21
-3225.00
0
LINE
8
LINE
10
-2000.00
20
-3825.00
11
2000.00
21
-3825.00
0
LINE
8
LINE
10
2000.00
20
-3825.00
11
2000.00
21
-3375.00
0
LINE
8
LINE
10
2000.00
20
-3375.00
11
-2000.00
21
-3375.00
0
LINE
8
LINE
10
-2000.00
20
-3375.00
11
-2000.00
21
-3825.00
0
LINE
8
LINE
10
-2000.00
20
-4425.00
11
2000.00
21
-4425.00
0
LINE
8
LINE
10
2000.00
20
-4425.00
11
2000.00
21
-3975.00
0
LINE
8
LINE
10
2000.00
20
-3975.00
11
-2000.00
21
-3975.00
0
LINE
8
LINE
10
-2000.00
20
-3975.00
11
-2000.00
21
-4425.00
0
DIMENSION
8
DIM
10
-400.00
20
400.00
11
-400.00
21
-400.00
70
33
1
800
42
0
50
0
0
DIMENSION
8
DIM
10
-2000.00
20
-800.00
11
2000.00
21
-800.00
70
33
1
4000
42
0
50
0
0
TEXT
8
TEXT
10
0.00
20
1200.00
40
200.00
1
TRAFFIC SIGNAL AND CROSSWALK
50
0
0
ENDSEC
0
EOF
