0
SECTION
2
HEADER
9
$ACADVER
1
AC1009
0
ENDSEC
0
SECTION
2
TABLES
0
TABLE
2
LTYPE
70
2
0
LTYPE
2
CONTINUOUS
70
0
3
Solid line
72
65
73
0
40
0
0
0
LTYPE
2
CENTER
70
0
3
Center
72
65
73
2
40
50
49
25
49
-25
0
0
LTYPE
2
DASHED
70
0
3
Dashed
72
65
73
2
40
30
49
20
49
-10
0
0
ENDTAB
0
TABLE
2
LAYER
70
6
0
LAYER
2
BORDER
70
0
62
1
6
CONTINUOUS
0
LAYER
2
INNER
70
0
62
7
6
CONTINUOUS
0
LAYER
2
ARROW
70
0
62
5
6
CONTINUOUS
0
LAYER
2
TEXT
70
0
62
7
6
CONTINUOUS
0
LAYER
2
DIM
70
0
62
5
6
CONTINUOUS
0
LAYER
2
0
70
0
62
7
6
CONTINUOUS
0
ENDTAB
0
ENDSEC
0
SECTION
2
ENTITIES
0
LINE
8
BORDER
10
0.00
20
675.50
11
-650.00
21
-675.50
0
LINE
8
BORDER
10
-650.00
20
-675.50
11
650.00
21
-675.50
0
LINE
8
BORDER
10
650.00
20
-675.50
11
0.00
21
675.50
0
LINE
8
BORDER
10
0.00
20
660.11
11
-640.00
21
-670.11
0
LINE
8
BORDER
10
-640.00
20
-670.11
11
640.00
21
-670.11
0
LINE
8
BORDER
10
640.00
20
-670.11
11
0.00
21
660.11
0
LINE
8
ARROW
10
0.00
20
-100.00
11
0.00
21
300.00
0
LINE
8
ARROW
10
0.00
20
300.00
11
-80.00
21
200.00
0
LINE
8
ARROW
10
0.00
20
300.00
11
80.00
21
200.00
0
LINE
8
ARROW
10
0.00
20
-150.00
11
0.00
21
-550.00
0
LINE
8
ARROW
10
0.00
20
-550.00
11
-80.00
21
-450.00
0
LINE
8
ARROW
10
0.00
20
-550.00
11
80.00
21
-450.00
0
DIMENSION
8
DIM
10
-650.00
20
875.50
11
650.00
21
875.50
70
33
1
1300
42
0
50
0
0
TEXT
8
TEXT
10
0.00
20
-800.00
40
150.00
1
TWO-WAY TRAFFIC WARNING SIGN
50
0
0
ENDSEC
0
EOF
